<?xml version="1.0" standalone="no"?>
<!DOCTYPE svg PUBLIC "-//W3C//DTD SVG 20010904//EN"
 "http://www.w3.org/TR/2001/REC-SVG-20010904/DTD/svg10.dtd">
<svg version="1.0" xmlns="http://www.w3.org/2000/svg"
 width="1280.000000pt" height="1280.000000pt" viewBox="0 0 1280.000000 1280.000000"
 preserveAspectRatio="xMidYMid meet">

<g transform="translate(0.000000,1280.000000) scale(0.100000,-0.100000)"
fill="#000000" stroke="none">
<path d="M5387 8724 c-17 -17 -1 -49 132 -269 77 -126 168 -277 202 -335 102
-173 191 -314 210 -335 10 -11 19 -24 21 -30 1 -5 8 -9 15 -7 7 2 13 -2 13 -8
0 -5 -4 -10 -9 -10 -19 0 175 -330 198 -338 9 -3 11 0 6 7 -5 9 -1 9 14 -1 12
-7 21 -17 21 -21 0 -5 9 -5 20 -2 13 4 20 2 20 -6 0 -7 8 -21 18 -32 16 -19
16 -20 -6 -14 -19 4 -21 3 -12 -8 7 -8 9 -19 5 -25 -5 -7 -12 -5 -21 7 -36 48
0 -29 57 -121 21 -33 54 -89 75 -123 20 -34 42 -60 47 -56 6 3 7 1 3 -5 -3 -6
7 -30 23 -54 16 -24 39 -61 51 -83 11 -22 47 -82 78 -132 31 -51 84 -137 116
-190 33 -54 93 -153 135 -220 42 -68 81 -132 87 -143 17 -31 23 -34 21 -11 -1
11 -4 21 -7 21 -3 0 -11 9 -18 21 -8 12 -9 18 -3 15 5 -4 13 -1 17 5 4 7 3 9
-3 6 -6 -4 -18 2 -28 13 -10 12 -13 20 -7 20 7 0 12 5 12 12 0 6 -3 8 -6 5
-13 -12 -44 14 -43 36 l0 22 9 -22 c9 -23 38 -29 108 -25 12 0 20 -3 17 -7 -2
-5 4 -11 15 -14 12 -3 20 -14 20 -26 0 -12 6 -21 14 -21 8 0 22 -7 30 -16 15
-14 16 -14 16 0 0 20 13 20 50 1 17 -9 30 -12 30 -8 0 4 5 2 12 -5 7 -7 23
-12 38 -12 14 0 32 -5 40 -11 11 -8 -5 -9 -60 -5 -90 6 -76 -7 30 -29 40 -8
76 -17 80 -20 5 -3 12 0 15 5 5 8 12 7 23 -2 10 -8 29 -14 44 -13 15 0 24 -3
22 -7 -3 -4 8 -8 24 -8 19 0 32 -6 36 -17 6 -14 9 -15 15 -4 6 9 42 14 117 17
60 2 128 5 151 6 22 2 39 0 37 -3 -8 -14 62 -3 73 11 6 8 15 12 19 8 4 -5 12
2 18 14 6 12 22 25 36 28 14 4 55 24 92 44 37 20 76 36 88 36 11 0 20 5 20 10
0 6 7 10 15 10 8 0 15 7 15 15 0 7 8 19 18 24 9 6 12 11 6 11 -13 0 -13 48 0
69 6 9 5 12 -1 8 -6 -4 -10 7 -11 25 0 16 -9 40 -20 52 -10 11 -22 29 -25 39
-4 11 -12 15 -18 11 -8 -4 -9 -3 -5 4 10 16 -16 52 -37 52 -19 0 -41 45 -31
62 4 7 2 8 -4 4 -14 -8 -36 40 -26 55 9 16 -26 48 -44 41 -14 -5 -15 -3 -5 10
20 23 -2 78 -28 71 -11 -3 -19 0 -19 6 0 7 5 9 10 6 6 -3 10 1 10 10 0 12 -5
15 -17 10 -14 -5 -15 -3 -6 5 8 9 8 19 0 39 -20 45 -59 90 -73 84 -14 -5 -36
37 -31 60 1 7 -4 11 -12 9 -8 -2 -11 3 -8 11 3 8 0 20 -6 26 -6 6 -8 11 -4 11
4 0 0 14 -8 30 -9 18 -21 28 -27 24 -7 -4 -8 -3 -4 5 13 21 -126 261 -152 261
-7 0 -11 4 -7 9 8 14 -104 228 -179 340 -35 53 -80 130 -101 171 -46 92 -149
258 -226 365 -151 210 -377 361 -628 422 -54 13 -155 16 -551 20 -267 3 -488
1 -493 -3z m918 -1374 c3 -5 1 -10 -4 -10 -6 0 -11 5 -11 10 0 6 2 10 4 10 3
0 8 -4 11 -10z m-10 -50 c3 -6 -1 -7 -9 -4 -18 7 -21 14 -7 14 6 0 13 -4 16
-10z m275 -354 c0 -3 -4 -8 -10 -11 -5 -3 -10 -1 -10 4 0 6 5 11 10 11 6 0 10
-2 10 -4z m-57 -12 c-7 -3 -9 -13 -6 -22 4 -15 3 -15 -6 -2 -9 13 -11 13 -11
0 0 -9 5 -21 12 -28 7 -7 8 -12 2 -12 -5 0 -17 13 -27 29 -17 29 -17 30 5 34
32 6 45 6 31 1z m101 -43 c-2 -15 -3 -34 -3 -43 -1 -10 -7 -17 -13 -15 -7 1
-12 -4 -10 -11 1 -8 -3 -12 -10 -9 -7 2 -12 11 -12 20 1 10 -4 13 -13 10 -10
-4 -12 -14 -8 -30 3 -15 2 -22 -4 -19 -5 3 -9 27 -9 52 0 44 0 45 19 28 10 -9
22 -14 26 -11 3 4 1 7 -5 7 -7 0 -12 5 -12 11 0 5 5 7 10 4 17 -11 32 5 20 20
-9 11 -7 14 7 12 13 -1 18 -8 17 -26z m16 -110 c0 -6 -5 -13 -10 -16 -6 -4 -8
-11 -5 -16 4 -5 1 -9 -5 -9 -7 0 -9 -9 -5 -22 5 -20 4 -21 -5 -5 -6 9 -8 22
-5 27 3 5 0 7 -8 4 -8 -3 -18 -1 -22 5 -3 6 1 11 10 11 8 0 18 7 21 15 7 16
34 21 34 6z m35 -1 c3 -5 1 -10 -4 -10 -6 0 -11 5 -11 10 0 6 2 10 4 10 3 0 8
-4 11 -10z m1275 -12 c0 -18 -2 -20 -9 -8 -6 8 -7 18 -5 22 9 14 14 9 14 -14z
m-1286 -94 c1 -21 7 -39 14 -42 6 -2 12 -10 12 -19 0 -10 6 -12 19 -8 15 4 19
2 16 -12 -2 -10 -4 -21 -4 -25 -1 -5 -8 -8 -16 -8 -13 0 -16 6 -14 25 0 3 -12
20 -26 37 -20 24 -23 33 -13 39 9 6 9 9 1 9 -7 0 -11 13 -11 30 1 44 20 21 22
-26z m70 -153 c-2 -3 -12 3 -22 13 -16 17 -16 18 5 5 12 -7 20 -15 17 -18z
m1356 9 c0 -5 -2 -10 -4 -10 -3 0 -8 5 -11 10 -3 6 -1 10 4 10 6 0 11 -4 11
-10z m-1310 -86 c0 -4 -9 1 -20 11 -11 10 -20 23 -20 28 0 6 9 1 20 -11 11
-12 20 -24 20 -28z m27 -35 c2 -17 -1 -18 -12 -9 -8 7 -12 16 -9 21 9 16 20
10 21 -12z m1353 -9 c0 -5 -2 -10 -4 -10 -3 0 -8 5 -11 10 -3 6 -1 10 4 10 6
0 11 -4 11 -10z m-1264 -79 c0 -15 -3 -17 -13 -9 -7 6 -13 14 -13 19 0 5 6 9
13 9 7 0 13 -9 13 -19z m561 -217 c-3 -3 -12 -4 -19 -1 -8 3 -5 6 6 6 11 1 17
-2 13 -5z"/>
<path d="M10238 8701 c-26 -4 -50 -10 -54 -14 -8 -7 59 0 116 13 43 10 7 10
-62 1z"/>
<path d="M10528 8683 c6 -2 18 -2 25 0 6 3 1 5 -13 5 -14 0 -19 -2 -12 -5z"/>
<path d="M10070 8660 l-25 -8 27 -1 c15 -1 30 4 33 9 7 11 0 11 -35 0z"/>
<path d="M10178 8653 c12 -2 32 -2 45 0 12 2 2 4 -23 4 -25 0 -35 -2 -22 -4z"/>
<path d="M9915 8597 c-114 -60 -250 -182 -322 -287 -82 -121 -151 -307 -240
-650 -36 -139 -160 -591 -253 -925 -45 -159 -95 -342 -111 -405 -17 -63 -65
-232 -106 -375 -91 -311 -121 -432 -124 -490 -2 -37 7 -59 73 -171 42 -71 101
-174 133 -229 288 -504 283 -498 370 -541 47 -22 65 -26 122 -22 91 5 151 35
240 121 162 156 256 355 383 812 50 180 151 529 215 750 26 88 51 174 55 190
12 46 217 766 265 930 14 50 30 108 35 130 5 22 27 105 50 185 23 80 52 187
66 238 13 50 35 134 49 185 57 218 121 382 173 440 10 11 11 17 3 17 -6 0 -14
-7 -17 -15 -4 -8 -10 -15 -16 -15 -5 0 -6 5 -3 10 3 6 -1 10 -9 10 -9 0 -16
-4 -16 -10 0 -5 -7 -10 -15 -10 -8 0 -15 -5 -15 -12 0 -6 -3 -8 -7 -5 -3 4
-15 0 -25 -10 -17 -15 -18 -15 -18 0 0 13 -6 15 -32 10 -24 -5 -30 -3 -26 8 4
11 -9 14 -66 16 -61 1 -152 7 -179 12 -5 0 -5 6 -2 11 4 7 -2 9 -19 4 -18 -4
-26 -2 -26 6 0 9 -11 11 -34 7 -25 -4 -36 -1 -40 9 -3 8 -16 14 -28 14 -19 0
-20 -2 -8 -10 12 -8 9 -10 -14 -10 -20 0 -27 4 -23 14 4 10 -6 15 -33 20 -43
7 -73 -1 -63 -17 4 -6 1 -7 -6 -3 -7 5 -10 14 -7 22 6 16 -3 18 -24 4 -13 -9
-13 -11 0 -20 11 -7 12 -10 2 -10 -23 0 -44 29 -38 52 3 13 3 17 0 11 -3 -7
-13 -13 -21 -13 -9 0 -13 -6 -9 -15 8 -22 -32 -19 -72 5 -18 11 -37 18 -43 15
-5 -4 -9 -1 -9 4 0 6 6 11 14 11 8 0 16 6 19 13 3 8 -1 14 -9 14 -8 0 -14 -4
-14 -9 0 -4 -7 -8 -15 -8 -8 0 -15 5 -15 10 0 18 -33 9 -95 -23z m82 7 c-3 -3
-12 -4 -19 -1 -8 3 -5 6 6 6 11 1 17 -2 13 -5z"/>
<path d="M10080 8590 c0 -5 5 -10 11 -10 5 0 7 5 4 10 -3 6 -8 10 -11 10 -2 0
-4 -4 -4 -10z"/>
<path d="M10120 8590 c0 -5 7 -7 15 -4 8 4 15 8 15 10 0 2 -7 4 -15 4 -8 0
-15 -4 -15 -10z"/>
<path d="M10118 8563 c7 -3 16 -2 19 1 4 3 -2 6 -13 5 -11 0 -14 -3 -6 -6z"/>
<path d="M3253 8265 c-44 -13 -114 -52 -148 -82 -84 -73 -189 -242 -249 -400
-43 -112 -195 -632 -316 -1078 -40 -148 -91 -323 -133 -465 -14 -47 -47 -159
-72 -250 -26 -91 -62 -214 -81 -275 -52 -170 -135 -457 -209 -715 -130 -462
-146 -513 -174 -569 -51 -103 -103 -175 -188 -260 -45 -46 -83 -86 -83 -88 0
-11 937 5 990 16 168 37 324 108 439 201 90 73 186 191 242 299 59 115 108
264 209 636 44 165 90 332 100 370 56 200 92 333 124 455 19 74 47 176 61 225
14 50 37 133 51 185 28 105 48 174 124 425 81 268 119 463 98 501 -13 24 -190
325 -273 464 -50 85 -109 186 -130 224 -76 139 -157 197 -274 195 -37 0 -85
-6 -108 -14z"/>
<path d="M7811 6984 c0 -11 3 -14 6 -6 3 7 2 16 -1 19 -3 4 -6 -2 -5 -13z"/>
<path d="M5810 6767 c0 -4 14 -29 30 -57 17 -28 30 -55 30 -61 0 -6 4 -7 10
-4 6 3 7 -1 4 -10 -5 -12 -9 -13 -20 -4 -21 17 -17 -5 6 -34 22 -27 14 -41
-17 -31 -15 5 -15 4 -3 -5 13 -9 13 -11 -2 -11 -10 0 -18 -6 -18 -14 0 -8 -9
-18 -20 -21 -11 -3 -20 -11 -20 -16 0 -18 -16 -8 -17 11 -1 11 4 20 12 20 7 0
15 7 19 15 4 11 -2 15 -20 15 -14 0 -23 -4 -20 -8 8 -13 -60 -13 -113 -1 -25
6 -54 12 -63 14 -10 2 -24 -3 -32 -10 -12 -12 -15 -12 -19 -1 -4 11 -25 13
-81 11 -42 -1 -76 2 -76 7 0 5 -5 6 -10 3 -6 -4 -8 -11 -5 -16 4 -5 1 -9 -4
-9 -6 0 -11 6 -11 13 0 9 -29 10 -135 3 -74 -5 -135 -13 -135 -18 0 -5 5 -18
10 -28 9 -17 6 -20 -25 -26 -19 -3 -41 -4 -48 -1 -8 3 -20 1 -28 -4 -12 -7
-12 -9 0 -9 11 0 10 -5 -4 -20 -10 -11 -26 -20 -36 -20 -9 0 -20 -6 -22 -12
-4 -10 -6 -10 -6 0 -2 28 -24 39 -54 28 -22 -9 -30 -8 -37 4 -8 12 -10 11 -10
-6 0 -18 -5 -20 -27 -17 -16 3 -24 1 -18 -4 6 -4 10 -15 10 -23 0 -8 9 -15 20
-15 11 -1 25 -4 31 -8 17 -10 24 -46 12 -54 -6 -3 -8 -2 -5 4 3 5 -3 17 -14
26 -10 9 -19 13 -19 9 0 -15 25 -62 33 -62 4 0 7 -10 7 -23 0 -12 9 -28 20
-35 16 -10 18 -17 10 -37 -9 -23 -7 -25 15 -25 19 0 25 -5 25 -21 0 -11 4 -18
9 -15 5 4 20 2 33 -3 22 -9 22 -10 -6 -10 -28 -1 -28 -2 -13 -19 10 -10 17
-24 17 -32 0 -10 3 -10 14 -1 12 10 14 8 11 -18 -3 -25 0 -31 27 -40 28 -10
30 -9 25 9 -3 13 0 20 9 20 7 0 11 6 9 13 -4 8 7 13 30 14 19 1 35 -3 35 -8 0
-5 -3 -8 -7 -8 -24 4 -43 -3 -43 -15 0 -8 -6 -17 -12 -19 -7 -3 -3 -6 9 -6 16
-1 21 3 17 13 -4 10 1 14 15 13 12 -1 21 -5 21 -9 0 -4 16 -10 35 -14 29 -5
34 -10 30 -25 -4 -13 -1 -19 8 -19 8 0 28 -7 43 -15 35 -18 64 -19 64 -2 0 9
2 9 9 -1 4 -7 17 -15 27 -16 10 -2 18 -10 18 -19 -2 -17 70 -32 101 -21 15 6
17 4 13 -14 -4 -13 0 -23 9 -26 24 -10 35 4 28 35 -6 25 -4 29 14 29 22 0 30
-20 9 -20 -7 0 -5 -5 6 -11 13 -8 25 -8 40 -1 34 17 76 23 76 12 0 -5 -17 -10
-37 -11 -30 0 -34 -2 -18 -8 11 -5 35 -7 53 -5 19 3 31 0 28 -5 -3 -5 1 -11 9
-14 9 -4 12 -1 9 7 -4 9 4 11 27 8 19 -3 26 -7 19 -12 -7 -4 8 -10 34 -14 30
-5 46 -12 46 -22 0 -8 5 -14 11 -14 6 0 18 -8 27 -17 16 -16 17 -14 20 20 3
35 6 37 45 44 33 5 37 8 22 14 -13 5 -15 8 -5 8 13 1 13 2 0 11 -12 8 -11 10
8 10 12 0 22 -6 22 -14 0 -13 4 -13 28 0 15 7 34 14 43 14 19 0 42 24 32 33
-3 4 -26 7 -50 7 -42 0 -43 1 -28 17 14 13 21 14 36 5 22 -14 49 -16 49 -3 0
6 18 9 40 9 22 0 40 -4 40 -9 0 -5 6 -9 13 -9 9 0 11 12 9 40 -5 47 4 50 34
13 19 -23 25 -26 36 -15 11 11 10 12 -3 7 -20 -8 -32 28 -15 45 8 9 6 11 -11
5 -17 -5 -23 -2 -23 10 0 9 5 13 10 10 6 -3 10 -1 10 4 0 6 -7 11 -16 11 -8 0
-13 4 -9 9 9 15 -17 62 -31 57 -8 -3 -11 0 -8 8 5 13 -26 77 -72 151 -14 22
-27 48 -31 58 -3 10 -15 17 -29 17 -13 0 -24 5 -24 11 0 5 5 7 10 4 6 -3 10 1
10 9 0 10 -6 13 -17 9 -13 -5 -15 -2 -10 11 5 12 2 16 -10 14 -9 -2 -18 3 -20
10 -3 6 0 12 6 12 6 0 11 5 11 10 0 6 -8 10 -17 8 -10 -2 -23 9 -32 27 -9 16
-24 38 -34 49 -9 11 -16 24 -14 29 3 10 22 10 22 0 1 -5 9 -24 20 -43 11 -19
18 -38 17 -42 -1 -5 5 -8 13 -8 11 0 5 18 -22 68 -20 37 -47 81 -59 97 -12 17
-25 40 -28 52 -6 20 -36 53 -36 40z m93 -242 c14 -20 15 -24 2 -19 -11 5 -14
2 -9 -12 4 -14 -2 -11 -20 9 -26 28 -27 47 -3 47 7 0 20 -12 30 -25z m-53 -25
c0 -5 -9 -10 -20 -10 -11 0 -20 5 -20 10 0 6 9 10 20 10 11 0 20 -4 20 -10z
m110 -54 c0 -3 -4 -8 -10 -11 -5 -3 -10 -1 -10 4 0 6 5 11 10 11 6 0 10 -2 10
-4z m-1045 -55 c3 -5 1 -12 -5 -16 -5 -3 -10 1 -10 9 0 18 6 21 15 7z m130
-272 c-7 -10 -55 -8 -55 2 0 9 41 17 53 11 4 -2 5 -8 2 -13z m-15 -40 c0 -6
-4 -7 -10 -4 -5 3 -10 11 -10 16 0 6 5 7 10 4 6 -3 10 -11 10 -16z m170 -23
c0 -3 -4 -8 -10 -11 -5 -3 -10 -1 -10 4 0 6 5 11 10 11 6 0 10 -2 10 -4z m970
-32 c0 -8 -5 -12 -10 -9 -6 4 -8 11 -5 16 9 14 15 11 15 -7z m-736 -69 c19
-14 18 -15 -16 -15 -36 0 -54 11 -41 24 11 10 37 6 57 -9z m464 -35 c-1 -17
-8 -30 -15 -30 -16 0 -16 2 -3 34 13 35 21 33 18 -4z m-98 -10 c0 -5 -4 -10
-10 -10 -5 0 -10 5 -10 10 0 6 5 10 10 10 6 0 10 -4 10 -10z"/>
<path d="M5816 6627 c3 -10 9 -15 12 -12 3 3 0 11 -7 18 -10 9 -11 8 -5 -6z"/>
<path d="M4510 6611 c0 -5 7 -15 17 -22 15 -13 15 -12 4 9 -12 23 -21 28 -21
13z"/>
<path d="M5788 6583 c7 -3 16 -2 19 1 4 3 -2 6 -13 5 -11 0 -14 -3 -6 -6z"/>
<path d="M4575 6505 c39 -72 65 -107 65 -88 0 6 -6 16 -14 22 -8 7 -18 24 -21
39 -3 15 -20 43 -37 62 -30 35 -30 35 7 -35z"/>
<path d="M4650 6470 c-9 -6 -10 -10 -3 -10 6 0 15 5 18 10 8 12 4 12 -15 0z"/>
<path d="M4674 6399 c-3 -6 -1 -16 5 -22 8 -8 11 -5 11 11 0 24 -5 28 -16 11z"/>
<path d="M4725 6390 c-8 -13 3 -30 18 -29 9 0 9 2 0 5 -7 3 -9 12 -6 20 6 16
-3 19 -12 4z"/>
<path d="M4650 6371 c0 -6 4 -13 10 -16 6 -3 7 1 4 9 -7 18 -14 21 -14 7z"/>
<path d="M4710 6331 c0 -6 4 -12 8 -15 5 -3 9 1 9 9 0 8 -4 15 -9 15 -4 0 -8
-4 -8 -9z"/>
<path d="M4752 6323 c-5 -10 -7 -23 -5 -30 7 -18 -16 -26 -34 -11 -10 7 -5 -8
12 -37 38 -67 45 -75 63 -75 12 0 11 3 -4 18 -35 32 -45 59 -29 75 8 8 11 18
7 21 -3 4 1 4 11 0 9 -3 17 -15 17 -26 0 -13 -5 -18 -14 -15 -21 8 -7 -32 15
-44 15 -7 17 -6 13 6 -4 10 -2 13 8 10 8 -3 21 1 28 10 8 10 9 15 1 15 -6 0
-11 7 -11 16 0 9 -6 14 -13 11 -8 -3 -14 1 -14 9 0 8 4 14 9 14 4 0 8 5 8 10
0 6 -7 10 -15 10 -8 0 -15 -6 -15 -12 0 -9 -3 -8 -9 2 -6 8 -8 17 -5 21 2 4 0
10 -5 14 -6 3 -14 -2 -19 -12z"/>
<path d="M6953 6235 c0 -8 7 -15 15 -15 12 0 12 3 2 15 -7 8 -13 15 -15 15 -1
0 -2 -7 -2 -15z"/>
<path d="M4812 6184 l-31 -35 24 -40 c14 -21 28 -39 31 -39 3 0 2 5 -1 10 -3
6 -1 10 5 10 6 0 15 12 21 28 11 32 12 42 2 41 -5 -1 -7 -6 -5 -11 1 -6 -2
-16 -8 -22 -5 -7 -7 -16 -3 -19 3 -4 1 -7 -5 -7 -13 0 -42 28 -42 41 0 6 10 7
23 3 12 -3 19 -3 14 1 -4 5 -1 18 7 30 26 40 2 47 -32 9z"/>
<path d="M8131 6174 c0 -11 3 -14 6 -6 3 7 2 16 -1 19 -3 4 -6 -2 -5 -13z"/>
<path d="M8152 6164 c1 -9 9 -19 16 -22 9 -3 13 2 10 14 -1 9 -9 19 -16 22 -9
3 -13 -2 -10 -14z"/>
<path d="M8198 6143 c7 -3 16 -2 19 1 4 3 -2 6 -13 5 -11 0 -14 -3 -6 -6z"/>
<path d="M6945 6100 c3 -5 8 -10 11 -10 2 0 4 5 4 10 0 6 -5 10 -11 10 -5 0
-7 -4 -4 -10z"/>
<path d="M4887 6079 c-4 -15 -2 -16 14 -6 23 14 24 24 5 24 -8 0 -17 -8 -19
-18z"/>
<path d="M4850 6031 c13 -24 29 -36 26 -19 -3 19 -16 38 -27 38 -6 0 -6 -7 1
-19z"/>
<path d="M7000 6011 c5 -11 15 -23 21 -27 6 -3 3 5 -6 20 -20 30 -30 35 -15 7z"/>
<path d="M4916 6001 c-3 -5 2 -15 12 -22 15 -12 16 -12 5 2 -7 9 -10 19 -6 22
3 4 4 7 0 7 -3 0 -8 -4 -11 -9z"/>
<path d="M5060 5995 c0 -5 5 -17 10 -25 8 -12 10 -12 10 -1 0 8 8 20 18 27 15
12 14 13 -10 12 -16 -1 -28 -7 -28 -13z"/>
<path d="M4955 5990 c3 -5 8 -10 11 -10 2 0 4 5 4 10 0 6 -5 10 -11 10 -5 0
-7 -4 -4 -10z"/>
<path d="M6236 5964 c-3 -8 -2 -12 4 -9 5 3 14 -4 21 -16 10 -20 12 -21 21 -5
5 9 14 14 19 11 5 -4 7 -10 4 -15 -3 -4 2 -10 10 -14 19 -7 19 3 0 28 -8 11
-21 16 -30 12 -9 -3 -18 0 -21 9 -8 19 -20 19 -28 -1z"/>
<path d="M6113 5943 c-10 -4 -9 -9 3 -20 17 -18 30 -11 17 10 -4 8 -14 12 -20
10z"/>
<path d="M7051 5930 c14 -31 19 -36 19 -24 0 6 -7 19 -16 30 -14 18 -14 18 -3
-6z"/>
<path d="M4945 5931 c-3 -5 -2 -12 3 -15 5 -3 9 1 9 9 0 17 -3 19 -12 6z"/>
<path d="M6314 5888 c-4 -7 -3 -8 4 -4 8 4 16 -3 22 -18 5 -14 14 -26 20 -26
5 0 10 -7 10 -17 0 -9 3 -13 7 -10 9 10 -30 87 -44 87 -6 0 -15 -5 -19 -12z"/>
<path d="M4980 5880 c0 -5 5 -10 11 -10 5 0 7 5 4 10 -3 6 -8 10 -11 10 -2 0
-4 -4 -4 -10z"/>
<path d="M4950 5861 c0 -6 4 -13 10 -16 6 -3 7 1 4 9 -7 18 -14 21 -14 7z"/>
<path d="M6310 5861 c0 -5 5 -13 10 -16 6 -3 10 -2 10 4 0 5 -4 13 -10 16 -5
3 -10 2 -10 -4z"/>
<path d="M5760 5840 c-13 -8 -12 -12 5 -24 32 -25 52 -20 29 7 -10 12 -19 23
-19 24 0 1 -7 -2 -15 -7z"/>
<path d="M4990 5791 c11 -22 24 -42 29 -46 6 -3 -2 15 -15 40 -31 55 -42 60
-14 6z"/>
<path d="M6350 5804 c0 -5 7 -18 15 -28 8 -11 15 -16 15 -10 0 5 -7 18 -15 28
-8 11 -15 16 -15 10z"/>
<path d="M5041 5706 c7 -15 15 -23 17 -16 3 7 -3 19 -13 28 -15 16 -16 15 -4
-12z"/>
<path d="M6610 5431 c0 -6 4 -13 10 -16 6 -3 7 1 4 9 -7 18 -14 21 -14 7z"/>
<path d="M5209 5412 c6 -12 16 -24 22 -28 8 -4 8 -1 0 14 -6 12 -16 24 -22 28
-8 4 -8 1 0 -14z"/>
<path d="M6636 5387 c3 -10 9 -15 12 -12 3 3 0 11 -7 18 -10 9 -11 8 -5 -6z"/>
<path d="M6607 5370 c3 -11 9 -20 14 -20 11 0 11 3 3 24 -9 23 -23 20 -17 -4z"/>
<path d="M5252 5355 c7 -20 58 -115 62 -115 5 0 -17 63 -25 70 -3 3 -13 16
-23 30 -10 14 -16 21 -14 15z"/>
<path d="M6786 5068 c36 -69 45 -79 62 -66 13 11 14 9 9 -14 -4 -15 -3 -30 3
-33 6 -3 7 1 4 9 -3 9 -1 16 5 16 6 0 11 -4 11 -9 0 -5 6 -11 14 -14 12 -5 12
-2 2 16 -16 30 -46 77 -69 107 -19 24 -19 24 -13 3 4 -13 3 -23 -2 -23 -5 0
-12 9 -15 20 -3 11 -10 20 -16 20 -7 0 -5 -12 5 -32z m54 -46 c0 -15 -2 -15
-10 -2 -13 20 -13 33 0 25 6 -3 10 -14 10 -23z"/>
<path d="M5483 4950 c23 -38 43 -65 45 -60 2 5 -6 22 -17 36 -12 15 -21 32
-21 38 -1 12 -35 56 -43 56 -3 0 13 -31 36 -70z"/>
<path d="M6590 4110 c0 -5 4 -10 9 -10 6 0 13 5 16 10 3 6 -1 10 -9 10 -9 0
-16 -4 -16 -10z"/>
</g>
</svg>
